<svg width="44" height="44" viewBox="0 0 44 44" fill="none" xmlns="http://www.w3.org/2000/svg">
<path d="M24.4444 15.6689L34.2222 5.89111L30.7756 2.44444L24.4444 8.77556V0H19.5556V8.77556L13.2244 2.44444L9.77778 5.89111L19.5556 15.6689V19.5556H15.6689L5.89111 9.77778L2.44444 13.2244L8.77556 19.5556H0V24.4444H8.77556L2.44444 30.7756L5.89111 34.2222L15.6689 24.4444H19.5556V28.3311L9.77778 38.1089L13.2244 41.5556L19.5556 35.2244V44H24.4444V35.2244L30.7756 41.5556L34.2222 38.1089L24.4444 28.3311V24.4444H28.3311L38.1089 34.2222L41.5556 30.7756L35.2244 24.4444H44V19.5556H24.4444V15.6689Z" fill="white"/>
</svg>
